<svg xmlns="http://www.w3.org/2000/svg" width="24.691" height="26.936" viewBox="0 0 24.691 26.936">
  <g id="delete-103" transform="translate(0)">
    <path id="Path_8655" data-name="Path 8655" d="M243.08,384a1.06,1.06,0,0,0-1.122,1.122v13.244a1.294,1.294,0,0,1-1.347,1.347H227.591a1.294,1.294,0,0,1-1.347-1.347V385.122a1.122,1.122,0,1,0-2.245,0v13.244a3.545,3.545,0,0,0,3.591,3.591h12.795a3.545,3.545,0,0,0,3.591-3.591V385.122C244.2,384.449,243.753,384,243.08,384Z" transform="translate(-221.755 -375.021)" fill="#ababab"/>
    <path id="Path_8656" data-name="Path 8656" d="M399.045,396.346V385.122a1.027,1.027,0,0,0-.9-1.122c-.449,0-1.347.449-1.347,1.122v11.223a1.122,1.122,0,1,0,2.245,0Z" transform="translate(-388.495 -375.021)" fill="#ababab"/>
    <path id="Path_8657" data-name="Path 8657" d="M565.445,396.346V385.122A1.257,1.257,0,0,0,564.1,384c-.673,0-.9.449-.9,1.122v11.223a1.027,1.027,0,0,0,.9,1.122C564.547,397.468,565.445,397.019,565.445,396.346Z" transform="translate(-549.059 -375.021)" fill="#ababab"/>
    <path id="Path_8658" data-name="Path 8658" d="M183.569,132.489h-5.612v-1.571A2.971,2.971,0,0,0,175.039,128h-5.387a2.971,2.971,0,0,0-2.918,2.918v1.571h-5.612a1.122,1.122,0,0,0,0,2.245h22.447a1.122,1.122,0,0,0,0-2.245Zm-14.59-1.571a.6.6,0,0,1,.673-.673h5.387a.6.6,0,0,1,.673.673v1.571h-6.734Z" transform="translate(-160 -128)" fill="#ababab"/>
  </g>
</svg>
