<svg xmlns="http://www.w3.org/2000/svg" width="20.351" height="22.201" viewBox="0 0 20.351 22.201">
  <g id="delete-103" transform="translate(0)">
    <path id="Path_8655" data-name="Path 8655" d="M239.726,384a.874.874,0,0,0-.925.925v10.916a1.066,1.066,0,0,1-1.11,1.11H226.96a1.066,1.066,0,0,1-1.11-1.11V384.925a.925.925,0,0,0-1.85,0v10.916a2.922,2.922,0,0,0,2.96,2.96h10.546a2.922,2.922,0,0,0,2.96-2.96V384.925C240.651,384.37,240.281,384,239.726,384Z" transform="translate(-222.15 -376.6)" fill="#600fb2"/>
    <path id="Path_8656" data-name="Path 8656" d="M398.65,394.176v-9.251a.846.846,0,0,0-.74-.925c-.37,0-1.11.37-1.11.925v9.251a.925.925,0,1,0,1.85,0Z" transform="translate(-389.955 -376.6)" fill="#600fb2"/>
    <path id="Path_8657" data-name="Path 8657" d="M565.05,394.176v-9.251a1.036,1.036,0,0,0-1.11-.925c-.555,0-.74.37-.74.925v9.251a.846.846,0,0,0,.74.925C564.31,395.1,565.05,394.731,565.05,394.176Z" transform="translate(-551.544 -376.6)" fill="#600fb2"/>
    <path id="Path_8658" data-name="Path 8658" d="M179.426,131.7H174.8v-1.3A2.449,2.449,0,0,0,172.4,128h-4.44a2.449,2.449,0,0,0-2.405,2.405v1.3h-4.625a.925.925,0,0,0,0,1.85h18.5a.925.925,0,0,0,0-1.85Zm-12.026-1.3a.491.491,0,0,1,.555-.555h4.44a.491.491,0,0,1,.555.555v1.3H167.4Z" transform="translate(-160 -128)" fill="#600fb2"/>
  </g>
</svg>
